PathFileType	4	(X/Y/Z)	D:\MotionData\NordSprintingStudy\BertecTesting2023-09-14\Generated_files\Trimmed_running_0600000001-Feet.trc
DataRate	CameraRate	NumFrames	NumMarkers	Units	OrigDataRate	OrigDataStartFrame	OrigNumFrames
200.00	200.00	      38	10	mm	200.00	1426	      1900
Frame#	Time	r_calc			r_toe			r_meta			r_ankle			r_mankle			l_calc			l_toe			l_meta			l_ankle			l_mankle			
		X1	Y1	Z1	X2	Y2	Z2	X3	Y3	Z3	X4	Y4	Z4	X5	Y5	Z5	X6	Y6	Z6	X7	Y7	Z7	X8	Y8	Z8	X9	Y9	Z9	X10	Y10	Z10	

1426	7.125	868.45764	213.98433	458.32150	980.33038	173.77901	276.70514	942.45355	128.87784	307.50571	940.90967	155.34659	431.64395	961.75165	235.53270	417.04639	490.98444	277.76450	157.63858	658.94391	299.04510	54.41838	612.22253	350.88657	53.67520	562.84979	338.74744	168.60321	594.40814	260.03000	165.74959	
1427	7.130	885.59082	214.42305	432.41946	1012.88501	174.69568	260.73813	972.23969	129.45206	288.00473	960.33270	156.09023	411.84509	982.64532	237.12555	398.67706	475.40720	281.41183	172.70782	631.64038	300.00424	55.35081	586.10596	352.69052	55.89315	547.04681	342.75220	177.27203	578.83081	264.78473	171.60332	
1428	7.135	904.65399	215.38408	406.30511	1045.23975	174.87044	245.79419	1002.54388	129.93631	269.85916	980.94159	156.89066	392.10989	1004.21899	238.04234	380.34708	462.18756	286.34222	189.05002	606.40979	301.50574	56.93865	561.80194	354.71927	60.50351	532.73230	347.32455	186.54057	564.52631	269.85822	178.15460	
1429	7.140	925.56287	217.05800	380.77606	1078.22412	175.09198	231.95876	1033.63391	130.25699	252.81218	1002.42255	157.87735	373.19635	1027.40601	240.21426	362.99603	450.46820	292.64590	206.54427	583.34924	303.29889	59.65119	538.63037	356.54214	68.08579	519.29767	352.07730	196.98584	550.53003	274.72815	186.74509	
1430	7.145	948.08466	219.25578	355.57611	1111.80322	174.89795	219.45396	1065.24170	131.18306	237.03413	1025.11487	159.33220	354.53534	1051.29456	242.29309	346.25125	439.31299	299.16446	224.99339	561.61963	305.40488	63.88723	517.02765	358.59174	78.01179	506.86221	356.81677	208.65382	536.51282	278.89523	197.49590	
1431	7.150	971.90472	222.36214	330.63129	1145.53491	174.87970	208.33551	1097.35498	132.06882	222.51500	1048.41528	161.30038	336.33154	1076.31555	244.00877	330.00296	427.55920	305.55527	243.93144	539.76849	307.99408	70.36281	496.01437	360.95114	90.85623	493.96387	361.04001	221.83469	521.28613	282.66312	209.71338	
1432	7.155	996.58856	225.46899	306.22437	1179.59656	174.20872	199.31288	1129.78223	132.91797	209.52518	1072.44434	163.46498	318.86395	1100.93591	244.93564	313.84122	414.76221	312.20078	263.85681	517.07471	310.87573	78.24779	476.21249	363.84555	105.90848	480.30536	364.11279	236.15956	505.21661	286.70044	222.96416	
1433	7.160	1022.56030	229.89703	282.38998	1212.84412	174.18654	191.96451	1162.16101	134.26163	197.80637	1096.67676	165.89258	302.22281	1126.13037	247.46542	299.34238	401.84525	317.12070	283.93356	493.08615	312.82651	86.95180	457.57846	366.19513	121.87574	466.45715	366.20148	251.77815	489.48257	289.16882	238.67433	
1434	7.165	1049.29053	233.98848	259.57440	1246.64075	175.50050	185.84587	1194.44080	135.68555	187.39877	1120.84070	169.17639	286.54971	1151.73999	249.50346	285.88309	389.70154	322.79578	304.24667	469.56305	312.60287	103.74339	437.00211	367.49167	138.80869	453.08160	369.33755	268.00983	473.21100	288.61459	254.98500	
1435	7.170	1076.62061	238.43700	237.88011	1278.68323	176.83783	181.14275	1225.97632	137.74446	177.88759	1144.83252	171.06519	270.93924	1176.44409	252.16231	273.39920	377.30249	325.68149	324.91925	447.14868	311.96887	123.31856	417.91129	369.07654	157.63329	440.58902	371.67166	285.24850	457.38919	290.07495	271.99960	
1436	7.175	1104.19531	242.41731	218.13051	1309.40649	178.72162	177.34189	1256.72974	140.36630	169.29506	1168.54517	173.91733	256.06985	1200.79065	254.65509	261.39526	364.87369	328.55936	346.58612	425.96985	311.83447	141.35446	400.87473	369.97461	177.14774	427.83511	373.91522	303.56680	441.90588	290.93018	291.01669	
1437	7.180	1132.16956	244.43294	198.32028	1338.55017	181.12720	173.97130	1286.52173	143.55356	161.19785	1192.22742	175.46899	241.28563	1224.43420	256.83282	250.09764	354.71429	332.29636	369.03769	406.16550	311.80893	160.83000	383.28387	370.74625	197.40620	416.07990	376.66559	322.75931	428.24423	292.69919	310.61011	
1438	7.185	1158.61316	247.86739	182.11418	1365.74597	184.52173	170.87793	1315.24805	147.68245	153.62883	1215.04675	177.65953	227.10165	1247.00439	259.21686	239.44456	346.87634	335.84665	392.52036	387.86496	311.65927	182.56366	366.41483	371.45105	218.63834	406.27295	379.65277	342.22177	416.70883	294.26212	331.14822	
1439	7.190	1183.48792	250.23773	167.64478	1391.60193	188.64427	168.24849	1342.03638	151.74239	146.36227	1236.33972	178.73465	213.30786	1268.05359	261.37390	229.38965	341.10065	339.20590	416.43216	370.68671	311.73477	204.79800	351.09305	372.18848	241.23091	397.39093	379.84888	362.24396	407.69800	296.36621	352.13129	
1440	7.195	1206.52417	252.69417	155.32114	1414.90027	193.84863	166.80705	1367.32996	156.76683	140.47446	1257.85828	181.16664	202.21786	1287.23694	263.20895	220.43423	337.92615	342.10770	440.81845	355.04733	312.10355	227.93652	337.29572	373.05862	264.69510	390.39014	380.95990	382.35654	400.40475	300.25040	371.66211	
1441	7.200	1227.14978	254.79424	144.86256	1432.80042	199.20575	166.15302	1390.04785	162.38033	135.85509	1277.19897	183.37421	192.44196	1304.00586	264.88449	213.19356	337.48059	344.84274	465.20529	341.24716	313.04254	251.97882	325.43265	374.36655	289.28610	386.21613	382.31152	402.64865	395.43317	302.01199	392.61047	
1442	7.205	1244.79736	256.75275	135.76392	1452.74744	205.04947	167.69124	1410.15662	168.14542	132.56207	1293.88586	186.19879	183.49750	1317.58948	266.37842	207.67230	339.82031	346.83237	490.15378	329.89691	314.17496	277.05374	316.46393	376.13397	314.91739	385.27267	385.80414	425.06076	392.99081	303.75388	413.60480	
1443	7.210	1259.42188	258.03363	128.17360	1465.96021	211.23187	169.09123	1425.33508	174.20958	129.80148	1307.51538	187.62196	175.90425	1328.34753	267.46725	203.52382	345.06689	348.67200	514.56952	321.63571	316.90689	302.56946	309.99918	378.78564	341.38574	385.58914	387.77667	446.79218	392.61804	305.42712	434.59189	
1444	7.215	1270.60010	258.54050	122.12404	1476.93848	216.97556	170.04250	1440.95728	180.48763	128.26360	1318.08032	188.50787	169.92810	1336.43201	268.54306	200.18988	352.64520	349.53110	538.26624	314.94867	319.25647	327.93341	306.28827	381.21042	367.99844	387.72934	391.84061	469.04544	394.44269	307.25967	454.77866	
1445	7.220	1278.65601	259.17313	117.12008	1484.26184	222.40274	170.13448	1450.71838	185.88118	126.18461	1325.79236	189.59032	165.77814	1341.94421	269.21698	197.43352	362.49573	349.67529	560.91174	311.26044	322.65445	352.89972	305.42154	383.87827	394.08981	393.17151	390.41632	489.82794	398.43484	308.32724	474.28088	
1446	7.225	1283.13794	259.97125	113.01237	1488.38013	226.47595	169.27733	1456.53198	190.43930	123.95995	1329.82776	190.40083	162.23500	1344.85596	269.78241	194.60849	373.85776	348.98993	582.43732	310.38474	325.98169	376.93140	307.27164	387.03693	419.77762	400.20715	391.27884	509.66409	404.18338	308.85281	492.94937	
1447	7.230	1284.22412	260.64453	109.33080	1488.85864	229.26634	166.90958	1458.38721	193.43628	120.54443	1330.74365	191.15619	158.39636	1344.80859	270.47617	191.30093	386.43710	348.30811	601.97473	312.12576	329.66830	399.83914	311.44376	389.60269	444.29749	408.67609	391.77768	529.30658	411.40457	310.05014	510.48389	
1448	7.235	1281.95007	261.43927	105.30959	1486.50452	230.00063	163.21667	1456.46936	195.25493	116.05996	1328.60779	192.18074	154.01311	1342.21802	270.82800	187.56488	399.54944	346.52039	620.25403	316.02625	333.91513	421.39911	320.26563	390.87787	465.73071	416.17999	393.30569	549.27405	420.29318	310.25336	526.88495	
1449	7.240	1276.90735	262.32507	102.08172	1481.20703	229.82178	157.86320	1451.03101	195.50754	110.37028	1322.75488	192.16084	149.12532	1337.07727	270.96704	183.16498	413.84198	343.97498	637.57849	322.05423	338.24390	441.42618	328.50165	393.80731	487.63190	429.53848	391.55319	564.59418	430.57623	310.47510	541.96442	
1450	7.245	1268.20435	263.21036	96.89741	1473.22705	228.48256	150.53886	1442.03564	194.88483	103.39239	1314.18994	192.47380	143.84189	1329.43640	271.43799	178.07155	428.93304	341.12192	652.96283	330.32352	342.06006	459.75690	336.58282	396.80975	509.53119	442.48520	391.12091	581.19690	442.07852	311.05307	555.71289	
1451	7.250	1257.24817	263.84219	91.82307	1462.76904	226.95163	141.71526	1430.16418	193.41495	95.51125	1302.99597	192.79633	138.43974	1320.32349	270.63843	171.87491	445.14389	338.42557	666.70447	340.76657	345.32870	476.33713	348.63965	398.49133	527.82800	453.24374	389.73499	596.09003	455.11829	310.85440	567.90747	
1452	7.255	1243.19958	265.18820	85.34684	1450.23193	225.01062	131.73424	1415.38953	191.47337	86.34863	1289.58533	193.17500	132.69307	1308.40369	271.18442	164.86853	462.21988	335.96918	678.60724	352.74390	349.11972	491.35315	362.12027	400.21478	544.70496	471.20789	390.18814	609.87189	469.32211	310.78220	578.62616	
1453	7.260	1227.90173	266.51761	80.19855	1435.76099	223.09607	120.78111	1398.36450	189.47462	76.81335	1273.91028	193.21780	126.51447	1294.57214	271.79843	157.41183	479.76776	333.31607	688.18329	366.02325	351.69043	504.50150	376.92389	402.11877	558.26575	484.38760	388.66730	620.26617	484.50235	311.50623	587.82141	
1454	7.265	1209.85767	265.74112	74.28841	1418.01599	221.21545	108.16239	1379.47449	187.77176	66.78542	1256.81445	193.44739	120.08360	1278.45984	273.19342	149.67220	498.12955	331.71347	696.63458	380.45459	354.21564	515.89886	392.41748	403.07523	571.10168	500.99246	390.71555	631.66486	500.49750	311.69873	595.51074	
1455	7.270	1190.14734	266.40698	67.95633	1399.13049	220.32410	95.22823	1358.86633	186.65646	55.84366	1238.30310	193.43745	113.28036	1261.10327	273.47372	141.46796	516.93134	329.94586	703.75067	395.83679	356.96799	525.27618	409.29968	403.94708	581.32062	522.15515	389.28183	636.90881	517.27386	311.10910	601.96295	
1456	7.275	1168.93359	264.64133	62.21670	1379.02515	219.97574	81.91866	1337.11877	185.93697	44.30661	1218.62097	193.07770	106.08347	1242.41333	273.26828	132.88800	535.63617	329.31110	709.06494	411.80273	359.63702	532.58661	426.73221	404.86575	589.30109	539.97144	389.18878	642.03589	534.46411	311.60596	606.96710	
1457	7.280	1144.80542	264.77289	58.62562	1358.32153	221.49525	69.72825	1313.43481	182.49776	39.54779	1198.45105	192.62793	98.72530	1222.64636	274.11951	124.41925	554.50562	328.38330	713.08472	428.89987	359.23642	538.43195	444.45154	405.81934	595.26172	558.29205	389.16846	646.07080	552.12390	311.54666	610.56842	
1458	7.285	1119.03247	261.71014	57.54726	1335.55481	228.33942	61.50714	1288.58203	185.22946	42.54197	1177.77039	195.90755	92.19356	1198.63623	278.48105	117.24470	573.15826	328.54697	715.72321	446.44232	360.36780	542.02692	463.01923	406.60837	599.20764	576.59021	389.43390	648.34900	570.16614	311.47955	613.00183	
1459	7.290	1088.93127	266.50693	51.12798	1305.44958	236.92511	56.94299	1259.97949	189.15297	44.45544	1155.85352	204.15511	91.03251	1167.98828	286.35190	112.85660	591.73901	328.23410	716.94543	464.57996	360.69226	543.62695	481.57703	407.26880	600.77399	595.09973	389.99457	649.60687	588.35358	312.22369	613.78650	
1460	7.295	1059.46375	274.72983	49.00636	1276.41968	237.68219	56.88195	1230.08203	191.65117	44.48827	1127.31018	211.97047	92.97582	1136.90869	294.62595	107.22980	609.89526	329.10040	716.88257	483.04126	361.40741	543.23615	499.83212	407.66644	600.36359	613.04858	390.29639	648.30554	606.92261	311.97900	613.49609	
1461	7.300	1031.88562	280.01794	50.11640	1250.01404	241.25517	54.57473	1202.21558	195.71111	44.74361	1096.40393	218.12466	95.56120	1113.70898	301.74374	105.28986	627.18646	330.03091	715.54950	501.78571	361.26538	540.94965	518.44354	407.97955	597.96375	630.94415	390.90161	646.24298	625.49536	312.24371	611.81396	
1462	7.305	1004.09045	285.39987	51.41051	1220.97937	243.15508	54.87892	1172.66760	198.25269	45.08730	1069.57520	223.80672	97.25910	1091.68384	308.69659	106.65504	643.76526	330.55930	712.97778	520.65637	361.47708	536.53058	536.03510	408.15024	593.16931	648.43738	391.70023	643.55243	643.86462	312.56366	608.91974	
1463	7.310	976.75659	289.42075	53.79871	1192.62012	243.13795	54.16611	1143.61694	199.21899	45.13694	1043.98669	227.20992	99.43781	1066.97388	312.61017	108.57837	658.90143	331.38058	709.13910	539.56323	362.68182	529.94598	553.75250	408.31454	587.28534	665.32422	391.92950	638.64331	661.92181	313.49353	604.70563	
